<?xml version="1.0" encoding="utf-8"?>
<!-- Generator: Adobe Illustrator 17.1.0, SVG Export Plug-In . SVG Version: 6.00 Build 0)  -->
<!DOCTYPE svg PUBLIC "-//W3C//DTD SVG 1.1//EN" "http://www.w3.org/Graphics/SVG/1.1/DTD/svg11.dtd">
<svg version="1.1" id="Artwork" xmlns="http://www.w3.org/2000/svg" xmlns:xlink="http://www.w3.org/1999/xlink" x="0px" y="0px"
	 viewBox="0 0 24 24" enable-background="new 0 0 24 24" xml:space="preserve">
<path d="M19.7,16.1h-1.9v-2.8h0.8c0.2,0,0.3-0.1,0.3-0.3c0-0.2-0.1-0.3-0.3-0.3h-2.2h-0.8v-2.8h0.8c0.2,0,0.3-0.1,0.3-0.3
	c0-0.2-0.1-0.3-0.3-0.3h-0.8c-0.1-1.8-1.5-3.1-3.3-3.3V4.3C12.3,4.1,12.2,4,12,4c-0.2,0-0.3,0.1-0.3,0.3v1.9
	C9.9,6.3,8.6,7.8,8.4,9.5H7.6c-0.2,0-0.3,0.1-0.3,0.3c0,0.2,0.1,0.3,0.3,0.3h0.8v2.8H7.6H5.4c-0.2,0-0.3,0.1-0.3,0.3
	c0,0.2,0.1,0.3,0.3,0.3h0.8v2.8H4.3c-0.2,0-0.3,0.1-0.3,0.3v3.3C4,19.9,4.1,20,4.3,20h15.4c0.2,0,0.3-0.1,0.3-0.3v-3.3
	C20,16.3,19.9,16.1,19.7,16.1z M15.6,13.4h0.8h0.8v2.8h-1.7L15.6,13.4L15.6,13.4z M13.4,12.8v-2.8H15v2.8H13.4z M15,13.4v2.8h-1.7
	v-2.8H15z M12,6.8c1.6,0,2.9,1.2,3,2.8H9C9.1,8,10.4,6.8,12,6.8z M11.2,12.8v-2.8h1.7v2.8H11.2z M12.8,13.4v2.8h-1.7v-2.8H12.8z
	 M9,10.1h1.7v2.8H9V10.1z M9,13.4h1.7v2.8H9V13.4z M6.7,13.4h0.8h0.8v2.8H6.7L6.7,13.4L6.7,13.4z M19.4,19.4h-1.6v-0.8
	c0-0.2-0.1-0.3-0.3-0.3s-0.3,0.1-0.3,0.3v0.8h-1.7v-0.8c0-0.2-0.1-0.3-0.3-0.3S15,18.4,15,18.6v0.8h-1.7v-0.8c0-0.2-0.1-0.3-0.3-0.3
	c-0.2,0-0.3,0.1-0.3,0.3v0.8h-1.7v-0.8c0-0.2-0.1-0.3-0.3-0.3s-0.3,0.1-0.3,0.3v0.8H8.9v-0.8c0-0.2-0.1-0.3-0.3-0.3
	s-0.3,0.1-0.3,0.3v0.8H6.7v-0.8c0-0.2-0.1-0.3-0.3-0.3c-0.2,0-0.3,0.1-0.3,0.3v0.8H4.5v-2.8h14.9L19.4,19.4L19.4,19.4z"/>
</svg>
