<?xml version="1.0" encoding="utf-8"?>
<!-- Generator: Adobe Illustrator 17.1.0, SVG Export Plug-In . SVG Version: 6.00 Build 0)  -->
<!DOCTYPE svg PUBLIC "-//W3C//DTD SVG 1.1//EN" "http://www.w3.org/Graphics/SVG/1.1/DTD/svg11.dtd">
<svg version="1.1" id="Artwork" xmlns="http://www.w3.org/2000/svg" xmlns:xlink="http://www.w3.org/1999/xlink" x="0px" y="0px"
	 viewBox="0 0 24 24" enable-background="new 0 0 24 24" xml:space="preserve">
<g>
	<g>
		<path d="M13.1,18.9c-1.5,0-4.1-0.5-6-1.3l0.2-0.5c1.8,0.7,4.5,1.2,5.9,1.2c3.5,0,6.4-2.7,6.4-6c0-3.3-2.7-5.9-6.1-6
			c-0.1,0-1.9,0-2.3,0L11,5.8c0.4,0,2.3,0,2.4,0c3.8,0.1,6.7,3,6.7,6.6C20.1,15.9,16.9,18.9,13.1,18.9L13.1,18.9z"/>
	</g>
	<g>
		<circle cx="12.5" cy="7.9" r="0.5"/>
	</g>
	<g>
		<circle cx="16" cy="9" r="0.5"/>
	</g>
	<g>
		<circle cx="18" cy="12.4" r="0.5"/>
	</g>
	<g>
		<circle cx="12.5" cy="16.8" r="0.5"/>
	</g>
	<g>
		<circle cx="16" cy="15.6" r="0.5"/>
	</g>
	<g>
		<circle cx="8.8" cy="16.1" r="0.5"/>
	</g>
	<g>
		<path d="M6,12.3c-0.3-0.3-0.6-0.5-0.9-0.7l-0.2-0.1c-0.4-0.3-0.7-0.6-0.8-1.1C3.8,9,5.3,7.6,6.4,7.1c0.2-0.1,0.8-0.4,1-0.4
			L7.1,7.3C6.8,7.4,6.3,7.6,6,7.8C5.4,8.2,4.8,9,4.7,9.6c-0.1,0.3-0.2,0.6,0.1,0.9c0.2,0.2,0.4,0.4,0.6,0.5l0.3,0.2
			c0.2,0.2,0.4,0.3,0.6,0.5L6,12.3z"/>
	</g>
	<g>
		<path d="M4.5,16.2C4.2,15.8,4,15.4,4,15c0.1-0.8,0.6-1.5,1.7-2c0.1,0,0.1-0.1,0.1-0.1l-0.4,0.7c-0.5,0.2-0.8,0.6-0.9,1.4
			c0,0.3,0,0.4,0.2,0.7L4.5,16.2C4.6,16.3,4.6,16.3,4.5,16.2z"/>
	</g>
	<g>
		<polygon points="5.5,16.9 8.3,8.6 8.8,8.7 6,17.2 		"/>
	</g>
	<g>
		<path d="M9,8C8.9,8,8.8,8,8.8,7.9C8.5,7.8,8.3,7.4,8.4,7c0.2-0.6,1-1.8,1.3-1.8c0.1,0,0.2,0.2,0.2,0.9c0,0.5-0.1,1.1-0.2,1.4
			C9.6,7.7,9.3,8,9,8z"/>
	</g>
</g>
</svg>
