<?xml version="1.0" encoding="utf-8"?>
<!-- Generator: Adobe Illustrator 17.1.0, SVG Export Plug-In . SVG Version: 6.00 Build 0)  -->
<!DOCTYPE svg PUBLIC "-//W3C//DTD SVG 1.1//EN" "http://www.w3.org/Graphics/SVG/1.1/DTD/svg11.dtd">
<svg version="1.1" id="Artwork" xmlns="http://www.w3.org/2000/svg" xmlns:xlink="http://www.w3.org/1999/xlink" x="0px" y="0px"
	 viewBox="0 0 24 24" enable-background="new 0 0 24 24" xml:space="preserve">
<path d="M19.7,9.7h-14l13.2-2.5c0.2,0,0.3-0.1,0.4-0.2c0.1-0.1,0.1-0.3,0.1-0.5l-0.3-1.1C19,5.1,18.8,5,18.5,5c-0.1,0-0.1,0-0.1,0
	L4.6,7.5c-0.2,0-0.3,0.1-0.4,0.2C4.1,7.9,4.1,8.1,4.1,8.2l0.1,0.4l0,0v0.1l0.2,0.6c0,0.1,0,0.1,0.1,0.1v0.2H4.3C4.1,9.7,4,9.8,4,10
	v8.8C4,18.9,4.1,19,4.3,19h15.4c0.2,0,0.3-0.1,0.3-0.3V10C20,9.9,19.9,9.7,19.7,9.7z M18.6,5.6l0.3,1.1l-14,2.6L4.6,8.2L18.6,5.6z
	 M19.4,18.5H4.6v-8.2H6v0.9c0,0.2,0.1,0.3,0.3,0.3c0.2,0,0.3-0.1,0.3-0.3v-0.9h1.6v0.9c0,0.2,0.1,0.3,0.3,0.3s0.3-0.1,0.3-0.3v-0.9
	h1.6v0.9c0,0.2,0.1,0.3,0.3,0.3c0.2,0,0.3-0.1,0.3-0.3v-0.9h1.6v0.9c0,0.2,0.1,0.3,0.3,0.3s0.3-0.1,0.3-0.3v-0.9h1.6v0.9
	c0,0.2,0.1,0.3,0.3,0.3s0.3-0.1,0.3-0.3v-0.9h1.6v0.9c0,0.2,0.1,0.3,0.3,0.3s0.3-0.1,0.3-0.3v-0.9h1.8L19.4,18.5L19.4,18.5z"/>
</svg>
