<?xml version="1.0" encoding="utf-8"?>
<!-- Generator: Adobe Illustrator 17.1.0, SVG Export Plug-In . SVG Version: 6.00 Build 0)  -->
<!DOCTYPE svg PUBLIC "-//W3C//DTD SVG 1.1//EN" "http://www.w3.org/Graphics/SVG/1.1/DTD/svg11.dtd">
<svg version="1.1" id="Layer_1" xmlns="http://www.w3.org/2000/svg" xmlns:xlink="http://www.w3.org/1999/xlink" x="0px" y="0px"
	 viewBox="0 0 24 24" enable-background="new 0 0 24 24" xml:space="preserve">
<g>
	<polygon fill="none" points="4.9,20 19.1,20 12,12.9 	"/>
	<polygon fill="none" points="4,4.9 4,19.1 11.1,12 	"/>
	<polygon fill="none" points="20,19.1 20,4.9 12.9,12 	"/>
	<polygon fill="none" points="19.1,4 4.9,4 12,11.1 	"/>
	<polygon points="11.1,12 4,19.1 4,20 4.9,20 12,12.9 	"/>
	<polygon points="12.9,12 20,4.9 20,4 19.1,4 12,11.1 	"/>
	<polygon points="12.9,12 12,11.1 4.9,4 4,4 4,4.9 11.1,12 12,12.9 19.1,20 20,20 20,19.1 	"/>
</g>
</svg>
