<?xml version="1.0" encoding="utf-8"?>
<!-- Generator: Adobe Illustrator 17.1.0, SVG Export Plug-In . SVG Version: 6.00 Build 0)  -->
<!DOCTYPE svg PUBLIC "-//W3C//DTD SVG 1.1//EN" "http://www.w3.org/Graphics/SVG/1.1/DTD/svg11.dtd">
<svg version="1.1" id="Artwork" xmlns="http://www.w3.org/2000/svg" xmlns:xlink="http://www.w3.org/1999/xlink" x="0px" y="0px"
	 viewBox="0 0 24 24" enable-background="new 0 0 24 24" xml:space="preserve">
<path d="M19.8,16.4L15.4,12l3.6-3.6c0.1-0.1,0.1-0.1,0.1-0.2c0-0.1-0.1-0.2-0.1-0.2L16,4.9c-0.1-0.1-0.3-0.1-0.4,0L12,8.5L7.6,4.1
	C7.5,4,7.3,4,7.2,4.1L4.1,7.2C4,7.3,4,7.5,4.1,7.6L8.5,12l-3.1,3.1c-0.1,0.1-0.1,0.1-0.1,0.2l-0.5,3.6c0,0.1,0,0.2,0.1,0.2
	C5,19.2,5,19.2,5.1,19.2c0,0,0,0,0.1,0l3.6-0.5c0.1,0,0.1-0.1,0.2-0.1l3.1-3.1l4.4,4.4c0.1,0.1,0.1,0.1,0.2,0.1c0.1,0,0.2,0,0.2-0.1
	l3.1-3.1c0.1-0.1,0.1-0.1,0.1-0.2C20,16.5,19.9,16.5,19.8,16.4z M15.8,5.5l2.7,2.7l-3.5,3.5l-2.7-2.7L15.8,5.5z M5.8,15.7
	c0.7,0.1,1.3,0.3,1.7,0.8s0.8,1.1,0.8,1.7l-3,0.4L5.8,15.7z M8.8,17.8c-0.1-0.7-0.4-1.3-0.9-1.8s-1.1-0.8-1.8-0.9l2.8-2.8l2.7,2.7
	L8.8,17.8z M16.6,19.3l-1.1-1.1l0.7-0.7c0.1-0.1,0.1-0.3,0-0.4c-0.1-0.1-0.3-0.1-0.4,0l-0.7,0.7l-1.1-1.1l0.7-0.7
	c0.1-0.1,0.1-0.3,0-0.4c-0.1-0.1-0.3-0.1-0.4,0l-0.7,0.7l-1.1-1.1l0.7-0.7c0.1-0.1,0.1-0.3,0-0.4c-0.1-0.1-0.3-0.1-0.4,0L12,14.7
	l-1.1-1.1l0.7-0.7c0.1-0.1,0.1-0.3,0-0.4c-0.1-0.1-0.3-0.1-0.4,0l-0.7,0.7L9.3,12l0.7-0.7c0.1-0.1,0.1-0.3,0-0.4
	c-0.1-0.1-0.3-0.1-0.4,0L9,11.6l-1.1-1.1l0.7-0.7c0.1-0.1,0.1-0.3,0-0.4c-0.1-0.1-0.3-0.1-0.4,0l-0.7,0.7L6.3,9L7,8.3
	C7.1,8.2,7.1,8,7,7.9c-0.1-0.1-0.3-0.1-0.4,0L5.9,8.6L4.7,7.4l2.7-2.7l11.9,11.9L16.6,19.3z"/>
</svg>
