<?xml version="1.0" encoding="utf-8"?>
<!-- Generator: Adobe Illustrator 17.1.0, SVG Export Plug-In . SVG Version: 6.00 Build 0)  -->
<!DOCTYPE svg PUBLIC "-//W3C//DTD SVG 1.1//EN" "http://www.w3.org/Graphics/SVG/1.1/DTD/svg11.dtd">
<svg version="1.1" id="Artwork" xmlns="http://www.w3.org/2000/svg" xmlns:xlink="http://www.w3.org/1999/xlink" x="0px" y="0px"
	 viewBox="0 0 24 24" enable-background="new 0 0 24 24" xml:space="preserve">
<g>
	<path d="M19.9,5.4C19.9,5.3,19.9,5.3,19.9,5.4c0-0.1-0.1-0.1-0.1-0.1s0,0,0-0.1l0,0l-0.1-0.1l0,0c-0.1,0-0.1,0-0.1,0h-1.3
		c-0.2,0-0.3,0.1-0.3,0.3c0,0.2,0.1,0.3,0.3,0.3h0.9c-0.2,1.4-0.8,6.6-2.4,10.9H4.8c1.6-4.4,2.7-9.7,3-10.9h1c0.2,0,0.3-0.1,0.3-0.3
		c0-0.2-0.1-0.3-0.3-0.3H7.6l0,0H7.5H7.4c0,0-0.1,0-0.1,0.1c0,0,0,0-0.1,0.1c0,0,0,0-0.1,0.1v0.1l0,0c0,0.1-1.3,6.4-3.2,11.5
		C4,17,4,17.1,4.1,17.2c0.1,0.1,0.1,0.1,0.3,0.1h2.9v2.2c0,0.2,0.1,0.3,0.3,0.3h12.1c0.2,0,0.3-0.1,0.3-0.3L19.9,5.4L19.9,5.4z
		 M7.8,19.1v-1.9h9.3c0.1,0,0.3-0.1,0.3-0.2c0.9-2.4,1.5-5.1,1.9-7.3v9.5H7.8L7.8,19.1z"/>
	<path d="M12.3,5.7h2.4c0.2,0,0.3-0.1,0.3-0.3c0-0.2-0.1-0.3-0.3-0.3h-2.4c-0.2,0-0.3,0.1-0.3,0.3C12,5.6,12.1,5.7,12.3,5.7z"/>
	<path d="M10.5,6.7c0.2,0,0.3-0.1,0.3-0.3V4.5c0-0.2-0.1-0.3-0.3-0.3s-0.3,0.1-0.3,0.3v1.9C10.2,6.6,10.4,6.7,10.5,6.7z"/>
	<path d="M16.4,6.7c0.2,0,0.3-0.1,0.3-0.3V4.5c0-0.2-0.1-0.3-0.3-0.3S16,4.3,16,4.5v1.9C16,6.6,16.2,6.7,16.4,6.7z"/>
</g>
</svg>
