<?xml version="1.0" encoding="utf-8"?>
<!-- Generator: Adobe Illustrator 17.1.0, SVG Export Plug-In . SVG Version: 6.00 Build 0)  -->
<!DOCTYPE svg PUBLIC "-//W3C//DTD SVG 1.1//EN" "http://www.w3.org/Graphics/SVG/1.1/DTD/svg11.dtd">
<svg version="1.1" id="Artwork" xmlns="http://www.w3.org/2000/svg" xmlns:xlink="http://www.w3.org/1999/xlink" x="0px" y="0px"
	 viewBox="0 0 24 24" enable-background="new 0 0 24 24" xml:space="preserve">
<path d="M16.3,5.1C16.3,5,16.3,5,16.2,5c-0.6-0.6-1.4-1-2.3-1c-0.9,0-1.7,0.3-2.3,1c-0.6,0.6-0.9,1.4-1,2.3l0,4H7.9
	c-0.2,0-0.3,0.2-0.3,0.3s0.2,0.3,0.3,0.3h2.7v7.8c0,0.2,0.2,0.3,0.3,0.3s0.3-0.2,0.3-0.3v-7.8h3.2c0.2,0,0.3-0.2,0.3-0.3
	s-0.2-0.3-0.3-0.3h-3.2l0-4c0-0.7,0.3-1.3,0.8-1.8c0.5-0.5,1.1-0.8,1.9-0.8c0.7,0,1.3,0.2,1.8,0.8c0,0,0,0,0.1,0.1
	c0.1,0.2,0.3,0.2,0.5,0.1C16.4,5.5,16.5,5.2,16.3,5.1z"/>
</svg>
