<?xml version="1.0" encoding="utf-8"?>
<!-- Generator: Adobe Illustrator 17.1.0, SVG Export Plug-In . SVG Version: 6.00 Build 0)  -->
<!DOCTYPE svg PUBLIC "-//W3C//DTD SVG 1.1//EN" "http://www.w3.org/Graphics/SVG/1.1/DTD/svg11.dtd">
<svg version="1.1" id="Artwork" xmlns="http://www.w3.org/2000/svg" xmlns:xlink="http://www.w3.org/1999/xlink" x="0px" y="0px"
	 viewBox="0 0 24 24" enable-background="new 0 0 24 24" xml:space="preserve">
<g>
	<path d="M11.6,14.1L11.5,14c-0.1-0.1-0.1-0.1-0.2-0.1l-0.1,0c-0.1-0.1-0.3-0.1-0.4-0.2c-1.5-0.9-1.3-1.7-1-2.4
		c0.3-0.2,0.7-0.4,0.9-0.7c0.6-0.6,1-1.4,1-2.3s-0.3-1.7-1-2.3c-0.1-0.1-0.2-0.2-0.4-0.3h1.7c0.2,0,0.3-0.1,0.3-0.3
		c0-0.2-0.1-0.3-0.3-0.3H8.5H8.3c-0.9,0-1.6,0.3-2.3,1c-0.6,0.6-1,1.4-1,2.3c0,0.9,0.3,1.7,1,2.3c0.6,0.6,1.4,1,2.3,1
		c0.2,0,0.4,0,0.6-0.1c-0.1,0.5-0.1,1.1,0.3,1.7c-0.3,0-0.6-0.1-0.9-0.1c-1.2,0-2.3,0.3-3.1,0.9C4.5,14.7,4,15.5,4,16.4
		s0.5,1.7,1.4,2.3c0.9,0.6,1.9,0.9,3.1,0.9s2.3-0.3,3.1-0.9c0.9-0.6,1.3-1.4,1.3-2.3C13,15.5,12.5,14.7,11.6,14.1z M6.5,10.1
		C6,9.6,5.8,9,5.8,8.3c0-0.8,0.3-1.4,0.8-1.9s1.1-0.8,1.8-0.8h0.2c0.7,0,1.3,0.3,1.8,0.8c0.5,0.5,0.8,1.1,0.8,1.9
		c0,0.7-0.3,1.4-0.8,1.9c-0.3,0.3-0.5,0.5-0.9,0.6l0,0c-0.3,0.1-0.7,0.2-1,0.2C7.7,10.9,7.1,10.7,6.5,10.1z M11.3,18.2
		C10.5,18.7,9.6,19,8.5,19c-1.1,0-2-0.3-2.8-0.8c-0.7-0.5-1.1-1.1-1.1-1.8s0.3-1.3,1.1-1.8c0.8-0.5,1.7-0.8,2.8-0.8
		c0.8,0,1.4,0.1,2.1,0.4c0.1,0,0.2,0.1,0.3,0.2l0.1,0c0.1,0,0.1,0.1,0.2,0.1l0.1,0.1c0.7,0.5,1.1,1.1,1.1,1.8
		C12.3,17.1,12,17.7,11.3,18.2z"/>
	<path d="M19.7,7.5h-3.2V4.7c0-0.2-0.1-0.3-0.3-0.3c-0.2,0-0.3,0.1-0.3,0.3v2.8H13c-0.2,0-0.3,0.1-0.3,0.3c0,0.2,0.1,0.3,0.3,0.3
		h2.9V11c0,0.2,0.1,0.3,0.3,0.3c0.2,0,0.3-0.1,0.3-0.3V8.1h3.2C19.9,8.1,20,8,20,7.8C20,7.6,19.9,7.5,19.7,7.5z"/>
</g>
</svg>
