<?xml version="1.0" encoding="utf-8"?>
<!-- Generator: Adobe Illustrator 17.1.0, SVG Export Plug-In . SVG Version: 6.00 Build 0)  -->
<!DOCTYPE svg PUBLIC "-//W3C//DTD SVG 1.1//EN" "http://www.w3.org/Graphics/SVG/1.1/DTD/svg11.dtd">
<svg version="1.1" id="Artwork" xmlns="http://www.w3.org/2000/svg" xmlns:xlink="http://www.w3.org/1999/xlink" x="0px" y="0px"
	 viewBox="0 0 24 24" enable-background="new 0 0 24 24" xml:space="preserve">
<g>
	<path d="M17.9,4H7.8h-1H6.1C5.9,4,5.8,4,5.7,4l0,0C4.9,4.1,4,4.5,4,6.1v11.9C4,19.3,4.7,20,6.1,20h11.9c1.3,0,2.1-0.7,2.1-2.1V6.1
		C20,4.7,19.3,4,17.9,4z M19.3,17.9c0,1-0.4,1.4-1.4,1.4H6.1c-1,0-1.4-0.4-1.4-1.4V6.1c0-0.9,0.3-1.3,1.1-1.4l0,0h0
		c0.1,0,0.2,0,0.3,0h0.1v1.8c0,0.2,0.1,0.3,0.3,0.3s0.3-0.1,0.3-0.3V4.7h0.9v1.8c0,0.2,0.1,0.3,0.3,0.3s0.3-0.1,0.3-0.3V4.7h9.5
		c1,0,1.4,0.4,1.4,1.4L19.3,17.9L19.3,17.9z"/>
	<path d="M15.1,8.9c-0.9-0.9-1.9-1.3-3.2-1.3c-1.2,0-2.3,0.4-3.1,1.3c-0.7,0.7-1.1,1.6-1.3,2.6c0,0.2,0,0.4,0,0.6
		c0,1.2,0.4,2.3,1.3,3.1c0.9,0.9,1.9,1.3,3.1,1.3s2.3-0.4,3.2-1.3c0.9-0.9,1.3-1.9,1.3-3.2l0-0.6C16.2,10.5,15.8,9.6,15.1,8.9z
		 M14.6,14.7c-0.7,0.7-1.6,1.1-2.7,1.1c-1,0-1.9-0.4-2.7-1.1C8.5,14,8.2,13.1,8.2,12c0-0.2,0-0.4,0-0.5c0.1-0.8,0.5-1.5,1.1-2.2
		C10,8.7,10.9,8.3,12,8.3s1.9,0.4,2.7,1.1c0.6,0.6,1,1.3,1.1,2.2l0,0.5C15.7,13.1,15.3,14,14.6,14.7z"/>
	<path d="M12,9.7L12,9.7c-0.7,0-1.2,0.2-1.7,0.7c-0.4,0.4-0.7,1-0.7,1.6c0,0.1,0,0.2,0,0.3c0.1,0.5,0.3,1,0.7,1.3
		c0.4,0.4,1,0.7,1.6,0.7c0.6,0,1.2-0.2,1.6-0.7c0.4-0.4,0.6-0.8,0.7-1.3c0-0.1,0-0.2,0-0.3c0-0.6-0.2-1.2-0.7-1.6
		C13.1,10,12.6,9.7,12,9.7z M13.5,12.3c0,0.4-0.2,0.7-0.5,0.9c-0.3,0.3-0.7,0.5-1.1,0.5s-0.8-0.2-1.1-0.5c-0.3-0.3-0.4-0.6-0.5-1
		c0-0.1,0-0.1,0-0.2c0-0.5,0.2-0.8,0.5-1.2c0.3-0.3,0.7-0.5,1.1-0.5H12c0.4,0,0.8,0.1,1.1,0.5c0.3,0.3,0.5,0.7,0.5,1.1
		C13.5,12.1,13.5,12.2,13.5,12.3z"/>
</g>
</svg>
