<?xml version="1.0" encoding="utf-8"?>
<!-- Generator: Adobe Illustrator 17.1.0, SVG Export Plug-In . SVG Version: 6.00 Build 0)  -->
<!DOCTYPE svg PUBLIC "-//W3C//DTD SVG 1.1//EN" "http://www.w3.org/Graphics/SVG/1.1/DTD/svg11.dtd">
<svg version="1.1" id="Artwork" xmlns="http://www.w3.org/2000/svg" xmlns:xlink="http://www.w3.org/1999/xlink" x="0px" y="0px"
	 viewBox="0 0 24 24" enable-background="new 0 0 24 24" xml:space="preserve">
<path d="M19.7,5.9c-0.1,0-0.2-0.1-0.2-0.1c-0.1,0-0.2,0.1-0.3,0.2c-0.1,0-0.3,0.1-0.7,0.1s-1-0.1-1.6-0.2c-0.4-0.1-0.8-0.1-1.2-0.1
	c-1.9,0-3.1,0.9-3.5,1.3C11.7,6.8,10.7,5.9,9,5.9C8.6,5.9,8.2,5.9,7.8,6C7.1,6,6.6,6.1,6,6.1c-0.8,0-1.3-0.2-1.3-0.2
	c-0.1,0-0.1-0.1-0.2-0.1C4.4,5.9,4.4,5.9,4.3,6C4.1,6.1,4,6.3,4,6.5v3.9v5.5c0,0.2,0.1,0.4,0.3,0.5c0.1,0,0.6,0.2,1.7,0.2
	c0.6,0,1.3-0.1,1.9-0.2c0.3-0.1,0.7-0.1,1-0.1c1.6,0,2.3,0.9,2.3,1c0.1,0.2,0.3,0.2,0.4,0.2v0.3c0,0.2,0.1,0.3,0.3,0.3
	c0.2,0,0.3-0.1,0.3-0.3v-0.3c0.2,0,0.3-0.1,0.4-0.2c0,0,1.1-1.1,2.9-1.1c0.3,0,0.7,0.1,1,0.1c0.7,0.2,1.3,0.2,1.8,0.2
	c0.9,0,1.3-0.2,1.4-0.3c0.1-0.1,0.2-0.3,0.2-0.4v-5.5V6.5C20,6.3,19.9,6,19.7,5.9z M9,15.8c-0.3,0-0.7,0.1-1.1,0.1
	c-0.7,0.2-1.3,0.2-1.8,0.2c-1,0-1.4-0.2-1.4-0.2v-5.5V8.6V6.5c0,0,0.5,0.2,1.4,0.2c0.5,0,1.1-0.1,1.9-0.2C8.3,6.4,8.7,6.4,9,6.4
	c2,0,2.8,1.2,2.8,1.2v1v1.8V17C11.7,17,10.9,15.8,9,15.8z M19.4,8.6v1.8v5.5c0,0-0.2,0.2-1.1,0.2c-0.4,0-0.9-0.1-1.7-0.2
	c-0.4-0.1-0.8-0.1-1.1-0.1c-2.1,0-3.3,1.2-3.3,1.2v-0.6v-6.1V8.6v-1c0,0,1.2-1.2,3.3-1.2c0.3,0,0.7,0.1,1.1,0.1
	c0.7,0.2,1.3,0.2,1.7,0.2c0.8,0,1.1-0.2,1.1-0.2V8.6z"/>
</svg>
