<?xml version="1.0" encoding="utf-8"?>
<!-- Generator: Adobe Illustrator 17.1.0, SVG Export Plug-In . SVG Version: 6.00 Build 0)  -->
<!DOCTYPE svg PUBLIC "-//W3C//DTD SVG 1.1//EN" "http://www.w3.org/Graphics/SVG/1.1/DTD/svg11.dtd">
<svg version="1.1" id="Artwork" xmlns="http://www.w3.org/2000/svg" xmlns:xlink="http://www.w3.org/1999/xlink" x="0px" y="0px"
	 viewBox="0 0 24 24" enable-background="new 0 0 24 24" xml:space="preserve">
<path d="M19.7,6.5H4.3C4.1,6.5,4,6.6,4,6.8v10.5c0,0.2,0.1,0.3,0.3,0.3h15.4c0.2,0,0.3-0.1,0.3-0.3V6.8C20,6.6,19.8,6.5,19.7,6.5z
	 M4.6,9h6c-1.1,0.6-1.9,1.7-1.9,3c0,1.4,0.9,2.6,2.1,3.1H4.6V9z M12,9.2c1.5,0,2.8,1.3,2.8,2.8s-1.3,2.9-2.8,2.9s-2.8-1.3-2.8-2.8
	S10.4,9.2,12,9.2z M19.4,17H4.6v-1.3h14.9V17z M19.4,15.1h-6.2c1.2-0.5,2.1-1.7,2.1-3.1c0-1.3-0.8-2.5-1.9-3h6V15.1z M19.4,8.4H4.6
	V7h14.9V8.4z"/>
</svg>
