<?xml version="1.0" encoding="utf-8"?>
<!-- Generator: Adobe Illustrator 17.1.0, SVG Export Plug-In . SVG Version: 6.00 Build 0)  -->
<!DOCTYPE svg PUBLIC "-//W3C//DTD SVG 1.1//EN" "http://www.w3.org/Graphics/SVG/1.1/DTD/svg11.dtd">
<svg version="1.1" id="Artwork" xmlns="http://www.w3.org/2000/svg" xmlns:xlink="http://www.w3.org/1999/xlink" x="0px" y="0px"
	 viewBox="0 0 24 24" enable-background="new 0 0 24 24" xml:space="preserve">
<path d="M16.2,5.8C15.1,4.6,13.7,4,12.1,4c0,0,0,0,0,0C10.4,4,9,4.6,7.8,5.8C6.7,7,6.1,8.4,6.1,10.1c0,0.8,0.1,1.5,0.4,2.2
	c0.1,0.2,0.3,0.3,0.4,0.2C7,12.4,7.1,12.2,7.1,12c-0.2-0.6-0.3-1.2-0.3-1.9c0-1.5,0.5-2.8,1.5-3.8c1-1.1,2.2-1.6,3.7-1.6
	c0,0,0.1,0,0.1,0c1.4,0,2.7,0.5,3.7,1.6c1,1.1,1.5,2.4,1.5,3.8c0,1.5-0.5,2.7-1.4,3.7c-0.5,0.6-1.1,0.9-1.7,1
	c-0.6,0.1-1.2,0-1.8-0.2c-1.2-0.6-1.8-1.5-1.8-2.9c0-0.1,0-0.1,0-0.2c0-0.1,0-0.1,0-0.2l0.5-3c0,0,0-0.1,0-0.1c0,0,0,0,0-0.1
	c0-0.2-0.1-0.3-0.3-0.3c-0.4,0-0.7,0.2-0.9,0.4c-0.4,0.6-0.4,1.6,0,3.2l-1.5,8.1c0,0.2,0.1,0.4,0.3,0.4c0,0,0,0,0.1,0
	C8.8,20,9,19.9,9,19.7l1.2-6.3c0.3,0.8,1,1.4,1.9,1.8c0.5,0.2,1,0.3,1.5,0.3c0.2,0,0.5,0,0.7-0.1c0.8-0.2,1.5-0.6,2.1-1.2
	c1-1.1,1.5-2.5,1.5-4.1C18,8.4,17.4,7,16.2,5.8z M10.4,8.8l-0.1,0.7C10.3,9.1,10.3,8.9,10.4,8.8z"/>
</svg>
