<?xml version="1.0" encoding="utf-8"?>
<!-- Generator: Adobe Illustrator 17.1.0, SVG Export Plug-In . SVG Version: 6.00 Build 0)  -->
<!DOCTYPE svg PUBLIC "-//W3C//DTD SVG 1.1//EN" "http://www.w3.org/Graphics/SVG/1.1/DTD/svg11.dtd">
<svg version="1.1" id="Artwork" xmlns="http://www.w3.org/2000/svg" xmlns:xlink="http://www.w3.org/1999/xlink" x="0px" y="0px"
	 viewBox="0 0 24 24" enable-background="new 0 0 24 24" xml:space="preserve">
<path d="M20,10.4L19.2,10c-0.5-0.7-1.3-1.1-2.5-1.2c-0.4,0-0.8-0.1-1.2-0.1c-0.3,0-0.6,0.1-0.9,0.2c-0.3,0-0.6,0.1-1,0.1
	c-0.3,0-0.6,0-0.9,0c-0.7,0-1,0-1.7,0c-0.3,0-0.7,0-1,0c-0.3,0-0.7-0.1-1-0.1c-0.3,0-0.5-0.1-0.8-0.1c-0.4,0-0.8,0-1.2,0.1
	C6,9,5.2,9.4,4.7,10L4,10.4V11l0.3,0.3v0c0,0.3,0,0.7,0,1c0,0,0.2,2.7,3,3c0.1,0,0.2,0,0.3,0c2.5,0,3.9-2.9,3.9-4.6
	c0-0.5-0.1-0.9-0.5-1.2l-0.2-0.2h2.2l-0.1,0.1c-0.3,0.3-0.5,0.8-0.5,1.2c0,1.6,1.3,4.6,3.9,4.6c0.1,0,0.2,0,0.3,0c2.7-0.3,3-2.9,3-3
	c0-0.3,0-0.7,0-1v0l0.3-0.3C20,10.9,20,10.4,20,10.4z M11.1,10.8c0,1.4-1.2,4.1-3.4,4.1c-0.1,0-0.2,0-0.3,0
	c-2.4-0.2-2.6-2.5-2.6-2.5c-0.2-1.9,0.6-2.8,2.5-3.1c0.4,0,0.7-0.1,1.1-0.1c1,0,1.9,0.2,2.3,0.7C10.9,10.1,11.1,10.4,11.1,10.8z
	 M19.2,12.3c0,0.1-0.2,2.3-2.6,2.5c-0.1,0-0.2,0-0.3,0c-2.2,0-3.4-2.7-3.4-4.1c0-0.4,0.1-0.7,0.4-0.9c0.4-0.4,1.3-0.7,2.3-0.7
	c0.3,0,0.7,0,1.1,0.1C18.7,9.5,19.4,10.5,19.2,12.3z"/>
</svg>
