<?xml version="1.0" encoding="utf-8"?>
<!-- Generator: Adobe Illustrator 17.1.0, SVG Export Plug-In . SVG Version: 6.00 Build 0)  -->
<!DOCTYPE svg PUBLIC "-//W3C//DTD SVG 1.1//EN" "http://www.w3.org/Graphics/SVG/1.1/DTD/svg11.dtd">
<svg version="1.1" id="Artwork" xmlns="http://www.w3.org/2000/svg" xmlns:xlink="http://www.w3.org/1999/xlink" x="0px" y="0px"
	 viewBox="0 0 24 24" enable-background="new 0 0 24 24" xml:space="preserve">
<path d="M19.9,19.4l-6.5-6.5c1.8-2.1,1.7-5.4-0.2-7.3c-1-1-2.4-1.6-3.8-1.6C7.9,4,6.6,4.5,5.6,5.5c-2.1,2.1-2.1,5.5,0,7.6
	c1,1,2.4,1.6,3.8,1.6c1.3,0,2.5-0.5,3.6-1.3l6.5,6.5c0.1,0.1,0.1,0.1,0.3,0.1c0.1,0,0.2,0,0.3-0.1C20,19.8,20,19.5,19.9,19.4z
	 M12.5,12.6c-0.9,0.9-2.1,1.4-3.3,1.4S6.9,13.5,6,12.6C4.2,10.8,4.2,7.8,6,6C7,5,8.1,4.6,9.3,4.6S11.7,5,12.5,6
	C14.3,7.8,14.3,10.8,12.5,12.6z"/>
</svg>
