<?xml version="1.0" encoding="utf-8"?>
<!-- Generator: Adobe Illustrator 17.1.0, SVG Export Plug-In . SVG Version: 6.00 Build 0)  -->
<!DOCTYPE svg PUBLIC "-//W3C//DTD SVG 1.1//EN" "http://www.w3.org/Graphics/SVG/1.1/DTD/svg11.dtd">
<svg version="1.1" id="Artwork" xmlns="http://www.w3.org/2000/svg" xmlns:xlink="http://www.w3.org/1999/xlink" x="0px" y="0px"
	 viewBox="0 0 24 24" enable-background="new 0 0 24 24" xml:space="preserve">
<g>
	<path d="M20,11.9c0-0.2-1.3-4.6-8-4.6S4,11.7,4,11.9c0,0,0,0.1,0,0.2c0,0.2,0.6,4.7,8,4.7c6.7,0,7.9-4.4,8-4.6
		C20,12,20,11.9,20,11.9z M12,16.2c-7,0-7.5-4.2-7.5-4.2S5.6,7.8,12,7.8s7.5,4.2,7.5,4.2S18.3,16.2,12,16.2z"/>
	<path d="M12,9C10.3,9,9,10.3,9,12s1.3,2.9,2.9,2.9s2.9-1.3,2.9-2.9S13.6,9,12,9z M12,14.3c-1.3,0-2.4-1.1-2.4-2.4s1.1-2.4,2.4-2.4
		c1.3,0,2.4,1.1,2.4,2.4S13.3,14.3,12,14.3z"/>
</g>
</svg>
