<?xml version="1.0" encoding="utf-8"?>
<!-- Generator: Adobe Illustrator 17.1.0, SVG Export Plug-In . SVG Version: 6.00 Build 0)  -->
<!DOCTYPE svg PUBLIC "-//W3C//DTD SVG 1.1//EN" "http://www.w3.org/Graphics/SVG/1.1/DTD/svg11.dtd">
<svg version="1.1" id="Artwork" xmlns="http://www.w3.org/2000/svg" xmlns:xlink="http://www.w3.org/1999/xlink" x="0px" y="0px"
	 viewBox="0 0 24 24" enable-background="new 0 0 24 24" xml:space="preserve">
<path d="M19.9,8.7c-0.2-0.5-0.7-0.9-1.3-0.9c-0.2,0-0.3,0-0.5,0.1L15.3,9L10,6.1c0,0-0.1,0-0.2,0L9.1,6.4c0,0-0.1,0.1-0.1,0.1
	c0,0.1,0,0.1,0,0.2l3,3.5l-3.3,1.3l-3.7-1c0,0-0.1,0-0.1,0l-0.7,0.3C4,11,4,11,4,11.1c0,0.1,0,0.2,0.1,0.2l3.4,2.3l-0.9,4
	c0,0.1,0,0.2,0.1,0.2c0,0,0.1,0,0.1,0s0,0,0.1,0l0.7-0.3c0,0,0.1,0,0.1-0.1l2-3.3L13,13l0.3,4.6c0,0.1,0,0.1,0.1,0.2
	c0,0,0.1,0,0.1,0c0,0,0,0,0.1,0l0.7-0.3c0,0,0.1-0.1,0.1-0.1l1.5-5.6l3.2-1.2C19.8,10.2,20.2,9.4,19.9,8.7z M14,17.1l-0.3,0.1
	l-0.2-4.4l1.9-0.8L14,17.1z M18.9,10.1l-9.4,3.7c0,0-0.1,0-0.1,0.1l-2,3.3l-0.2,0.1l0.8-3.7c0-0.1,0-0.2-0.1-0.2l-3.1-2.2l0.2-0.1
	l3.7,1c0,0,0.1,0,0.1,0l3.6-1.4c0,0,0.1-0.1,0.1-0.1c0-0.1,0-0.1,0-0.2l-3-3.5l0.3-0.1l5.3,2.9c0,0,0.1,0,0.2,0l2.9-1.1
	c0.5-0.2,1,0,1.2,0.5C19.6,9.4,19.4,9.9,18.9,10.1z"/>
</svg>
