<?xml version="1.0" standalone="no"?>
<!DOCTYPE svg PUBLIC "-//W3C//DTD SVG 1.1//EN" "http://www.w3.org/Graphics/SVG/1.1/DTD/svg11.dtd" >
<svg xmlns="http://www.w3.org/2000/svg">
<metadata></metadata>
<defs>
<font id="icomoonregular" horiz-adv-x="512" >
<font-face units-per-em="512" ascent="480" descent="-32" />
<missing-glyph horiz-adv-x="256" />
<glyph horiz-adv-x="0" d="M0 0v0v0v0z" />
<glyph horiz-adv-x="0" d="M0 0v0v0v0z" />
<glyph horiz-adv-x="0" d="M0 0v0v0v0z" />
<glyph unicode=" " horiz-adv-x="256" d="M0 0v0v0v0z" />
<glyph unicode="&#x25fc;" horiz-adv-x="500" d="M0 0v0v0v0v0z" />
<glyph unicode="&#xe600;" horiz-adv-x="526" d="M431 330l-1.5 1.5t-2 0.5h-2h-2.5q-1 -1 -3.5 -2t-4 -1.5l-4.5 -1.5t-4 -1q1 2 3 4t2.5 4t2.5 4t2 4q2 1 2 2t1 2t1 2t2 2l0.5 1t0 2t-0.5 2t-1 2q0 1 -1 1.5t-1.5 0.5h-2h-1.5l-6 -1.5t-5.5 -1.5t-6 -2t-6.5 -2l-6 -2h-2.5t-2 -0.5t-2 -0.5h-2.5h1q-7 6 -12 10t-12 6.5 t-14 4t-15 1.5h-1q-9 0 -15.5 -1.5t-13.5 -4t-12.5 -6.5t-11.5 -10q-4 -5 -9 -11t-7 -12.5t-4 -14t-1 -15.5q-1 -1 -0.5 -2t0 -2t0.5 -2t0 -2q-18 1 -36 5t-34 12.5t-31 20.5t-28 28q-1 1 -1 1.5t-1.5 0.5t-2 0.5t-1.5 0.5q0 -1 -1.5 -1t-1.5 -0.5t-1 -1t0 -1.5 q-6 -11 -7.5 -22t-1 -22t5 -21.5t10.5 -20.5q0 1 -1.5 1.5t-2 1t-2 1t-1.5 1.5q-1 0 -0.5 0t-0.5 0t-0.5 0t-0.5 0q1 0 -0.5 0.5t-2 0.5h-1.5t-1 -1q-2 0 -2 -0.5t-1 -1.5t-1 -2t-1 -2q1 -1 1 -3t0.5 -3.5t0.5 -3t1 -2.5q0 -9 4 -16.5t8.5 -14t12 -12.5t14.5 -10 q-1 -1 -4 -0.5t-5 1t-4.5 1.5t-3.5 2q-2 0 -2.5 0.5t-2 0.5t-2 -0.5t-2.5 -1.5q1 -1 0 -2t-1 -1.5t-0.5 -1.5t1.5 -2q3 -10 10 -17.5t14.5 -14t17 -11t19.5 -7.5q-6 -5 -14.5 -8.5t-16 -6t-16.5 -3.5t-17 -1h-3l-1.5 -0.5t-2 -1l-1.5 -1.5t0 -2q-2 -1 -1.5 -2t0.5 -2 t1.5 -1.5t0.5 -1.5q12 -7 23.5 -12t24.5 -8.5t26 -5t28 -1.5q-1 0 -0.5 0t0 0t0 0t-0.5 0h10q18 1 36 5.5t33.5 11.5t30.5 17t28 23q16 15 26 30.5t17.5 31.5t10.5 33.5t4 36.5q-1 2 -0.5 3.5t0 3.5t0 3.5t-0.5 3.5q5 3 8.5 6t7.5 6.5t7 8t8 9.5q-1 1 0 2t0.5 2t-0.5 2t-2 2 h1zM392 301q-1 0 -1.5 -0.5l-1.5 -1.5t-0.5 -2t-0.5 -1q1 -2 0.5 -4.5t0 -4.5t0.5 -4t1 -4q-1 -19 -4 -35t-10 -31t-16.5 -29t-24.5 -28q-12 -13 -26 -22.5t-28.5 -16t-31 -10.5t-33.5 -5h-10q-9 0 -19.5 1t-19 3t-18 5t-16.5 6q7 2 16 4t16.5 6t16 8.5t14.5 10.5q2 0 2 1 t0.5 2t0 1.5t0.5 1.5q-1 1 -1 2t-1 1.5t-1.5 1t-2.5 0.5q-9 2 -18 4.5t-16 6.5t-13.5 9t-10.5 12q3 -1 7 -1t7 1t7 2t7 2q2 1 2 1.5t1 1.5t1 1.5t1 1.5q-1 1 -1 2t-1 2l-1.5 1.5t-2.5 0.5q-9 4 -18 9.5t-14.5 11.5t-10 13.5t-4.5 16.5q1 -1 3.5 -1.5t4.5 -1t5 -0.5h5h2h1.5 t1.5 1t1 1.5t1 1.5q1 1 0.5 2t0 1.5t-0.5 1.5t0 2q-10 9 -15 18t-8 18t-2 18.5t3 19.5q15 -15 30 -27t32.5 -19.5t35.5 -11.5t39 -4h2h2l1 0.5l1 0.5l2 1q-1 1 0 1.5t0.5 1t0 1.5t-0.5 1q1 2 0 3.5t-0.5 3.5t0 3.5t0.5 3.5q-1 6 0.5 12t3 11.5t5.5 10.5l8 10q5 4 9.5 7.5 t10.5 5.5t11 3.5t13 1.5h1q7 0 12 -1.5t11 -3.5t10.5 -5.5t9.5 -7.5l2 -3q2 -1 2 -1.5t1 -0.5h1.5h2.5l2 0.5t3 0.5t3 0.5t3 0.5l9 2q-1 1 0.5 1h1.5l1.5 0.5l1.5 0.5q-1 -3 -3.5 -5.5t-3.5 -5t-3.5 -4.5t-4.5 -5q-1 0 -1 -1t-0.5 -2t0 -2t-0.5 -2q2 -1 2 -1.5t1 -1 t1.5 -0.5h2.5h3.5h4t4 0.5l2.5 0.5q0 -2 -2.5 -3.5t-4 -3t-4 -2.5t-3.5 -3v0z" />
<glyph unicode="&#xe601;" d="M437 354h-361q-1 0 -2.5 -0.5t-2 -1.5l-1 -2t-0.5 -3v-245q0 -1 0.5 -2.5t1 -2t2 -1t2.5 -0.5h361q2 0 3 0.5l2 1t1.5 2t0.5 2.5v245q0 1 -1 2l-2 2l-2 2t-2 1v0zM83 296h139q-10 -5 -18 -12.5t-14 -16.5t-9 -20t-3 -22q0 -13 3.5 -24.5t10 -21t15.5 -17t20 -11.5h-144 v145v0zM257 290q13 0 25 -5t21 -14t14 -21t5 -25q0 -14 -5 -26t-14 -21.5t-21 -14.5t-25 -5q-14 0 -26 5t-21 14t-14 21t-5 25q0 14 5 26t14 21.5t21 14.5t26 5v0zM431 109h-348v29h348v-29v0zM431 151h-145q11 4 20 11.5t15.5 17t10 21t3.5 24.5q0 11 -3 22t-9 20t-14 16.5 t-18 12.5h140v-145v0zM431 308h-348v33h348v-33v0z" />
<glyph unicode="&#xe602;" d="M427 279h-310l292 54q1 0 2.5 0.5t2.5 1t2 1.5l2 2q0 1 0.5 2t1 2.5t0.5 3t-1 2.5l-6 25l-2 4t-3 3.5t-4 2t-4 0.5h-1h-0.5h-0.5h-1l-304 -56q-2 0 -3 -0.5t-2 -1.5l-2 -2l-2 -2t-1.5 -2t-0.5 -2.5v-2.5t1 -3l2 -9v-3l4 -14v-0.5v-0.5h0.5h0.5v-5h-4q-1 0 -2 -0.5 t-2 -1.5t-1.5 -2t-0.5 -3v-193q0 -2 0.5 -3t1.5 -2t2 -1.5t2 -0.5h341q1 0 2.5 0.5t2 1.5l1 2t0.5 3v193q0 1 -0.5 2.5t-1 2.5t-2 1.5t-2.5 0.5v0zM402 369l7 -24l-308 -57l-7 24l308 57v0zM420 85h-327v181h31v-21q0 -1 0.5 -2.5t1 -2t2 -1t2.5 -0.5q2 0 3 0.5l2 1t1.5 2 t0.5 2.5v21h36v-21q0 -1 0.5 -2.5t1 -2t2 -1t2.5 -0.5q2 0 3 0.5l2 1t1.5 2t0.5 2.5v21h36v-21q0 -1 0.5 -2.5t1 -2t2 -1t2.5 -0.5q2 0 3 0.5l2 1t1.5 2t0.5 2.5v21h36v-21q0 -1 0.5 -2.5t1 -2t2 -1t2.5 -0.5q2 0 3 0.5l2 1t1.5 2t0.5 2.5v21h36v-21q0 -1 0.5 -2.5t1 -2 t2 -1t2.5 -0.5q2 0 3 0.5l2 1t1.5 2t0.5 2.5v21h36v-21q0 -1 0.5 -2.5t1 -2t2 -1t2.5 -0.5q2 0 3 0.5l2 1t1.5 2t0.5 2.5v21h40v-181h-2z" />
<glyph unicode="&#xe603;" horiz-adv-x="574" d="M463 131h-45l-1 65h21l2 0.5t2 1t1 2t0 2.5q1 2 0 3t-1 2t-2 1.5l-2 0.5h-72l1 64h18q3 0 3.5 0.5t2 1.5t1.5 2t1 3q-1 1 -1 2.5t-1.5 2t-2 1t-3.5 0.5h-18q-2 16 -8 29.5t-17 23.5t-24 16.5t-29 8.5l1 45q-1 1 -1 2.5t-1.5 2t-2 1t-3.5 0.5l-2 -0.5t-2 -1t-1 -2t0 -2.5 l-1 -45q-15 -1 -29 -7.5t-23.5 -17t-16.5 -24t-8 -29.5h-20l-2 -0.5t-2 -1t-1 -2t0 -2.5q-1 -2 0 -3t1 -2t2 -1.5l2 -0.5h20l-1 -64h-69q-3 0 -3.5 -0.5t-2 -1.5t-1.5 -2t-1 -3q1 -1 1 -2.5t1.5 -2t2 -1t3.5 -0.5h18l1 -65h-46q-1 0 -2.5 -0.5t-2 -1t-1.5 -2t0 -2.5l-1 -78 q1 -1 1 -2.5t1.5 -2t2 -1t3.5 -0.5h360q2 0 3 0.5l2 1t1 2t1 2.5l-1 78q1 1 0 2t-1.5 2t-2 1.5l-1.5 0.5h-1zM366 196h39l-1 -65h-37l-1 65v0zM315 209l-1 64h40l-1 -64h-38v0zM353 196l1 -65h-40l1 65h38v0zM283 351q13 0 26 -5t21.5 -14t15.5 -20.5t7 -25.5h-140 q0 14 6.5 25.5t15.5 20.5t21.5 14t25.5 5h1zM264 209l-1 64h39l-1 -64h-37v0zM301 196l1 -65h-39l1 65h37v0zM212 273h38l1 -64h-40q1 0 0.5 10t0 22t0 22t0.5 10v0zM211 196h40l-1 -65h-38q-1 0 -0.5 10t0 22.5t0 22.5t-0.5 10v0zM160 196h38l1 -65h-40l1 65v0zM456 54h-38 l-1 19q1 2 0.5 3l-1 2t-2.5 1.5l-2 0.5q-2 0 -3 -0.5t-2.5 -1.5t-1 -2t-0.5 -3l1 -19h-40l1 19q-1 2 -1 3t-1.5 2t-2 1.5t-3.5 0.5l-2 -0.5t-2 -1.5t-1 -2t0 -3l-1 -19h-38l-1 19q1 2 0 3t-1.5 2t-2 1.5l-1.5 0.5q-3 0 -3.5 -0.5t-2 -1.5t-1.5 -2t-1 -3l1 -19h-40l1 19 q-1 2 -1 3t-1 2t-2 1.5t-3 0.5q-1 0 -2.5 -0.5t-2 -1.5t-1.5 -2t0 -3l-1 -19h-37l-1 19q1 2 0 3t-1.5 2t-2 1.5t-2.5 0.5q-2 0 -3 -0.5t-2 -1.5t-1 -2t-1 -3l1 -19h-40l1 19q-1 2 -1 3t-1.5 2t-2 1.5t-3.5 0.5l-1.5 -0.5t-2 -1.5t-1.5 -2t0 -3l-1 -19h-38l-1 65h349l-1 -65 h1z" />
<glyph unicode="&#xe604;" d="M241 224l-241 -241v-15h15l241 241zM271 224l241 241v15h-15l-241 -241zM271 224l-256 256h-15v-15l497 -497h15v15z" />
<glyph unicode="&#xe605;" horiz-adv-x="558" d="M307 45q-15 0 -35 2.5t-41 6.5t-42.5 10t-39.5 14l4 12q18 -7 39 -12.5t42 -10t40 -7t33 -2.5q34 0 64.5 12.5t53.5 34t36 50.5t13 61t-12 60.5t-34 49.5t-51 34t-63 14h-9h-18.5h-20h-13.5l-3 14h14.5h20h19h8.5q37 -1 69.5 -14.5t56 -37t37 -54.5t13.5 -66 q1 -35 -13.5 -66.5t-39 -54.5t-58 -36.5t-70.5 -13.5v0v0zM305 333q0 -3 -1 -5.5t-3 -4t-4.5 -3t-4.5 -1.5q-3 0 -5.5 1.5t-4.5 3t-3 4t-1 5.5t1 5.5t3 4.5t4.5 3t5.5 1q2 0 4.5 -1t4.5 -3t3 -4.5t1 -5.5v0zM396 304q0 -2 -1 -5t-3 -4.5t-4.5 -2.5t-5.5 -1t-5.5 1t-4 2.5 t-3 4.5t-1.5 5q0 3 1.5 5.5t3 4.5t4 3t5.5 1t5.5 -1t4.5 -3t3 -4.5t1 -5.5v0zM450 215q0 -3 -1.5 -5.5t-3 -4.5t-4 -3t-5.5 -1t-5.5 1t-4.5 3t-3 4.5t-1 5.5t1 5.5t3 4.5t4.5 3t5.5 1t5.5 -1t4 -3t3 -4.5t1.5 -5.5v0zM305 100q0 -3 -1 -5.5t-3 -4.5t-4.5 -3t-4.5 -1 q-3 0 -5.5 1t-4.5 3t-3 4.5t-1 5.5q0 2 1 5t3 4.5t4.5 2.5t5.5 1q2 0 4.5 -1t4.5 -2.5t3 -4.5t1 -5v0zM396 130q0 -3 -1 -5.5t-3 -4.5t-4.5 -3t-5.5 -1t-5.5 1t-4 3t-3 4.5t-1.5 5.5t1.5 5.5t3 4t4 3t5.5 1.5t5.5 -1.5t4.5 -3t3 -4t1 -5.5v0zM209 116q0 -3 -1 -5.5t-3 -4 t-4.5 -3t-5.5 -1.5t-5.5 1.5t-4 3t-3 4t-1.5 5.5t1.5 5.5t3 4.5t4 3t5.5 1t5.5 -1t4.5 -3t3 -4.5t1 -5.5v0zM121 216q-2 3 -5 6t-6 5t-6.5 4.5t-7.5 4.5l-5 2q-4 3 -7.5 6t-6 6.5t-4.5 8t-3 8.5q-2 14 3 27t14 24t21 20t23 15q1 1 5 2.5l8 3t7.5 3t5.5 1.5l-7 -15 q-3 -1 -7 -2.5t-8 -3.5t-7.5 -4t-6.5 -3q-6 -4 -12 -9.5t-10.5 -12t-8 -13.5t-5.5 -12q-1 -3 -1.5 -6t-0.5 -6.5t1 -6.5t3 -6q2 -2 3.5 -4t3.5 -3.5t4 -2.5l4 -2l7 -6q2 -1 4 -2.5t4 -3.5t4 -3.5t4 -4.5l-4 -15v0zM83 115q-4 3 -7 7t-5 8t-3 8t-1 8q1 9 4 16.5t8.5 14 t13.5 12.5t20 11h0.5t0.5 0.5t0.5 0.5h0.5l-9 -19q-5 -2 -9.5 -5t-7 -7.5t-4.5 -10t-2 -12.5v-5t0.5 -4t1.5 -4.5t3 -4.5l-4 -15v0v0h-0.5t-0.5 1v0zM109 95l72 219l14 -4l-74 -221zM199 331h-1h-1.5h-1.5t-1 1q-3 1 -5.5 3.5t-3.5 6t-1.5 7.5t0.5 8q2 5 6.5 13.5t9.5 16 t10.5 13t8.5 5.5l1 -1.5t1.5 -4t1 -7.5t0.5 -12q0 -5 -0.5 -10.5t-1 -10t-1.5 -8.5t-1 -7q-1 -3 -3 -5.5t-5 -4t-6 -2.5t-6 -1v0z" />
<glyph unicode="&#xe606;" horiz-adv-x="526" d="M455 121l-104 104l86 86q1 1 1 1.5t0.5 1t0 1.5t0.5 2q-1 0 -0.5 1t-0.5 1.5t-0.5 1t-0.5 1.5l-73 73q-2 1 -2.5 1.5t-2.5 0.5t-2.5 -0.5t-2.5 -1.5l-85 -86l-106 104q0 1 -1.5 1.5t-2 0.5t-2.5 -0.5t-2 -1.5l-74 -73q0 -1 -1 -2.5t-0.5 -2.5t0.5 -2t2 -2l103 -105 l-74 -75q-1 0 -1 -0.5t-0.5 -1t0 -1t-0.5 -0.5l-11 -86q-1 -1 -0.5 -1.5t0.5 -1t0.5 -1t0.5 -1.5q2 0 2 -0.5t1 -1l1 -0.5h2q-1 0 -0.5 0t0 0t0.5 0t0 0l86 11l1 0.5l1 0.5l1 0.5t0 0.5l76 74l104 -104l1 -1h1h1.5h2.5h1h1h1t1 1l74 74l0.5 0.5t0.5 1t0.5 1.5t-0.5 2 q1 1 0 1.5t-1 1t-1.5 0.5t-0.5 1h-1zM359 381l66 -63l-84 -83l-62 64l80 82v0zM123 139q5 -1 11 -2.5t10.5 -4t10 -5.5t8.5 -8q6 -4 8.5 -9t5.5 -10t4 -10.5t3 -11.5l-72 -9l11 70v0zM193 87q0 6 -2.5 11.5t-4.5 11t-6.5 10.5t-7.5 10q-5 4 -9.5 7.5t-10.5 6.5t-11 5t-12 2 l66 66l62 -63l-63 -67h-1zM377 52l-26 27l16 17q2 1 2 2t0.5 2.5t-0.5 2.5t-1 2q-2 1 -2.5 1.5t-2.5 0.5t-2.5 -0.5t-2.5 -1.5l-16 -17l-28 27l18 17q0 1 1 2t0.5 2.5t-0.5 2.5t-2 2q0 1 -1.5 1.5t-2.5 0.5t-2.5 -0.5t-1.5 -1.5l-18 -16l-26 27l16 16q2 1 2 2.5t0.5 2.5 t-0.5 2t-1 2l-3 1.5t-2.5 0.5t-2 -0.5t-2.5 -1.5l-16 -16l-28 27l17 17q0 1 1 2t0.5 2t-0.5 2.5t-2 2.5q1 1 -1 1.5t-2.5 0.5t-2.5 -0.5t-2 -1.5l-17 -16l-26 27l15 17q2 1 2 2t0.5 2.5t-0.5 2.5t-1 2q-2 1 -2.5 1.5t-2 0.5t-2.5 -0.5l-3 -1.5l-15 -17l-29 27l18 17q0 1 1 2 t0.5 2.5t-0.5 2.5t-2 2q0 1 -1.5 1.5t-2.5 0.5t-2.5 -0.5t-1.5 -1.5l-18 -17l-25 27l15 17q2 1 2 2t0.5 2.5t-0.5 2.5t-1 2q-2 1 -2.5 1.5t-2 0.5t-2.5 -0.5l-3 -1.5l-15 -17l-30 29l66 63l281 -283l-65 -63h-1z" />
<glyph unicode="&#xe607;" d="M471 267l-21 12q-5 7 -11.5 12t-15 9.5t-18.5 7t-22 4.5q-4 1 -8 1.5t-7.5 0.5t-7.5 0.5t-8 0.5q-3 0 -6 -0.5l-6 -1t-6 -1.5l-6 -2q-4 -1 -7 -1.5t-6 -0.5t-6.5 -0.5t-6.5 -0.5h-6h-6h-6h-5h-13h-10h-10h-13h-6.5h-6.5h-6h-6q-4 0 -7.5 0.5t-6.5 1t-6.5 1.5t-6.5 1 q-3 1 -6 1t-5.5 0.5l-5 1t-5.5 0.5q-4 0 -8 -0.5l-8 -1t-7.5 -0.5t-7.5 -1q-12 -2 -22.5 -5t-18.5 -7t-15 -9.5t-11 -11.5l-20 -11v-15l8 -9v-2q0 -3 -0.5 -6.5t-0.5 -7t0.5 -6.5t0.5 -7l2 -11.5t10.5 -25.5t24.5 -27t44 -16h2.5h2.5h2h2q26 0 45.5 13t32.5 32t20 40t7 38 q0 5 -1 9.5t-2.5 8.5t-4 8t-5.5 7l-5 6h59l-4 -4q-3 -4 -5.5 -7.5t-4 -8t-2.5 -9t-1 -9.5q1 -16 7.5 -37.5t19.5 -40t32.5 -31.5t45.5 -13h2h2h2.5h2.5q27 3 43.5 15.5t24.5 26.5t10.5 25.5t2.5 12.5q0 3 0.5 6.5t0.5 7t-0.5 6.5t-0.5 7v1l8 9v14v0zM231 257q-1 -15 -7 -34 t-17.5 -35.5t-28.5 -28.5t-39 -12h-2h-2h-1.5h-1.5q-25 3 -38.5 13.5t-20.5 22.5t-9 21.5l-2 9.5q-2 19 1 33.5t11.5 24.5t22 16.5t33.5 9.5q4 1 7.5 1.5t7 0.5t7 0.5t7.5 0.5q10 0 19 -1.5t17 -4t14.5 -6t11.5 -8.5q2 -2 4 -4.5t3 -5.5t2 -6.5t1 -7.5v0zM450 216 q0 -1 -2 -11t-9 -21.5t-20.5 -22t-38.5 -12.5h-1.5h-1.5h-2h-2q-23 0 -40 11.5t-28.5 28.5t-17.5 36t-6 33q0 4 0.5 7.5t2 6.5t3.5 5.5t4 5.5q5 4 11.5 7.5t14.5 6t17 4t19 1.5h7.5t7 -0.5l7 -1t7.5 -1.5q20 -3 33.5 -9.5t22 -16.5t11.5 -24.5t1 -32.5v0z" />
<glyph unicode="&#xe608;" d="M443 46l-154 154q16 19 23.5 41.5t7 46t-9.5 46t-27 39.5q-9 9 -19.5 16t-21.5 12t-23.5 7.5t-24.5 2.5q-13 0 -25 -2.5t-23.5 -7.5t-21.5 -12t-19 -16q-19 -18 -28 -41.5t-9 -48t9 -48t28 -42.5q9 -9 19.5 -16t22 -12t23.5 -7.5t24 -2.5t23 2.5t21.5 6.5t20.5 9.5 t19 12.5l155 -154q0 -1 1 -1t1.5 -0.5t1.5 -0.5h3h2t1.5 0.5t1.5 0.5t1 1v4v3.5t-1 3t-2 3.5v0zM270 207q-8 -8 -17 -14.5t-19 -10.5t-20.5 -6t-21.5 -2q-10 0 -20.5 2t-20.5 6t-19 10.5t-17 14.5q-16 16 -24 36.5t-8 41.5t8 41.5t24 36.5q9 8 18 14.5t19 10.5t20 6t20 2 q11 0 21.5 -2t20.5 -6t19 -10.5t17 -14.5q16 -16 24 -36.5t8 -41.5t-8 -41.5t-24 -36.5v0z" />
<glyph unicode="&#xe609;" d="M467 227q0 2 -8.5 21.5t-31 41.5t-64 40t-107.5 18q-67 0 -107.5 -18t-63.5 -40t-30.5 -41.5t-9.5 -21.5q1 0 0.5 -0.5t0 -1t0 -1.5t0.5 -2q-1 -2 5 -21.5t27 -42.5t63.5 -41.5t115.5 -18.5q67 0 107.5 18.5t64 41t31 42t9.5 21.5q-1 1 -1 2t-0.5 1.5t0 1.5t-0.5 1v0z M256 112q-70 0 -109.5 18t-59.5 39t-24.5 38.5t-5.5 17.5q1 0 7.5 17t28.5 38t60.5 38.5t102.5 17.5q63 0 102.5 -17.5t60 -38.5t28.5 -38t7 -17q1 0 -7 -17.5t-28.5 -38.5t-60 -39t-102.5 -18v0zM255 302q-15 0 -29.5 -6t-24.5 -16.5t-16.5 -24.5t-5.5 -30q-1 -16 5.5 -30 t16.5 -25t24.5 -17t29.5 -6q17 0 30.5 6t25 17t17 25t6.5 30q-1 16 -6.5 30t-17 24.5t-25 16.5t-30.5 6v0zM256 161q-14 0 -25 5t-20.5 14t-14 20.5t-5.5 25.5q1 13 5.5 25t13.5 20.5t20.5 13.5t25.5 5q12 0 24.5 -5t20.5 -13.5t14 -20.5t5 -25q1 -14 -4.5 -25.5t-14 -20.5 t-20.5 -14t-25 -5v0z" />
<glyph unicode="&#xe60a;" d="M469 314q-2 5 -5.5 9.5t-8.5 7.5t-10 5t-11 2h-3.5t-3.5 -0.5t-3.5 -1t-3.5 -0.5l-75 -30l-141 77l-2 1h-1.5h-1.5l-1 -1l-19 -7l-1.5 -1.5t-1.5 -1t-1 -1t-1 -0.5q1 -1 0.5 -2t0.5 -1.5t0.5 -1t1.5 -0.5l79 -96l-88 -36l-101 27q1 0 0 0h-1h-1h-1l-20 -8l-1 -0.5t-1 -1 t-1 -1.5t0 -2q-1 -1 0 -2t0.5 -1.5t0.5 -1.5l1 -1l91 -62l-24 -107q1 -1 0.5 -2t0 -2t1 -1.5l1.5 -1.5l1 -0.5l1 -0.5h1t0 0q2 0 1.5 0t0.5 0t0.5 0t1.5 0l18 8h2l0.5 0.5t0.5 1t1 0.5l53 88l89 35l6 -124q1 -1 1 -1.5t1 -1.5t1 -1.5t1 -0.5q0 -1 0.5 -1h0.5h1h1h1h0.5h0.5 h1l19 7l1.5 1.5t1.5 1t1 1t1 0.5l39 150l86 33q6 4 11.5 9.5t8 12t3 14t-3.5 15.5h1zM311 88l-9 -4l-5 119l50 20l-36 -135v0zM441 276l-253 -100q-1 0 -1 -0.5t-1 -1t-0.5 -0.5t-0.5 -1l-53 -88l-8 -2l22 99q-1 1 -0.5 2t-0.5 2t-1 1.5t-2 1.5l-83 58l6 2l100 -27h1t0.5 0 t0.5 0h1l99 39q-1 0 0.5 0.5t1.5 1t1 1t0 1.5q1 1 0.5 1.5t0 1t-0.5 1t0 1.5l-81 95l10 4l140 -77l2 -1h1.5h1.5l2 1l77 31q6 2 10.5 1.5t9.5 -2.5t8 -5.5t6 -8.5q0 -4 0.5 -9t-2 -9.5t-5.5 -8t-9 -5.5v0z" />
<glyph unicode="&#xe60b;" horiz-adv-x="558" d="M419 361v1v0.5t0 -0.5v0v0t-0.5 1t-0.5 0.5t0 -0.5q0 1 0 0.5t0 0.5t0 0.5t0 1.5v-1l-1 2q-1 -1 -1.5 -0.5t-0.5 0t-0.5 0t-0.5 -0.5l-26 1q-1 -1 -2.5 -1t-2 -1l-1 -2t-0.5 -3q0 -1 0.5 -2.5t1 -2t2 -1.5t2.5 0l18 -1q-1 -9 -4.5 -33t-9 -54t-14.5 -65t-21 -66l-243 -1 q12 34 22 69t18 66t13 53t7 32l21 -1q1 1 2.5 1t2 1.5t1 2t0.5 3.5l-0.5 2t-1 2t-2 1t-2.5 0l-28 1q0 -1 -0.5 -0.5t-0.5 0t-0.5 -0.5t-0.5 -1q0 1 0 0.5v0t-0.5 -0.5l-0.5 -1q0 -1 0 -0.5t-0.5 0t-0.5 0t-1 -1.5v0q0 -2 -4.5 -23.5t-13 -55.5t-20.5 -74.5t-26 -79.5 q-1 0 -1 -1.5t0.5 -1.5t1 -1.5l0.5 -1.5q1 -1 1.5 -1t1 -1t1 -0.5t1.5 -0.5l58 1v-47l0.5 -1.5t1.5 -2t2 -1.5t3 0l245 -1q1 1 2.5 1t2.5 1.5t1 2v2.5l-1 286v0zM174 83v38l187 1q1 -1 2 0t2 1t1.5 1t1.5 1q7 19 12.5 38t10.5 38.5t9 37t6 35.5v-192l-232 1v0zM264 353l48 1 q2 -1 3 0t2 1.5t1.5 2t0.5 2.5q0 2 -0.5 3t-1.5 2t-2 1t-3 1l-48 -1q-1 1 -2 0t-2 -1t-1.5 -2l-0.5 -2q0 -3 0.5 -3.5t1.5 -2t2.5 -1.5t1.5 -1v0zM228 335q2 -1 3 0t2 1t1.5 2l0.5 2v40l-0.5 2t-1.5 2.5l-2 1t-3 -0.5q-1 1 -2.5 0.5t-2 -1t-1 -2.5l-0.5 -2v-40l0.5 -2 t1.5 -2t2 -1t2 0v0zM347 334q2 1 3 1t2 1t1.5 2t0.5 3v38q0 2 -0.5 3t-1.5 2.5t-2 1t-3 0.5q-1 -1 -2.5 -0.5t-2 -1t-1 -2.5t-0.5 -3v-38q0 -2 0.5 -3l1 -2t2 -1t2.5 -1v0z" />
<glyph unicode="&#xe60c;" d="M26 345h-26l243 -242h26zM486 345h26l-243 -242h-26z" />
<glyph unicode="&#xe60d;" d="M377 454v26l-242 -243v-26zM377 -6v-26l-242 243v26z" />
<glyph unicode="&#xe60e;" d="M135 -6v-26l242 243v26zM135 454v26l242 -243v-26z" />
<glyph unicode="&#xe60f;" d="M486 103h26l-243 242h-26zM26 103h-26l243 242h26z" />
<glyph unicode="&#xe612;" d="M64 320h320v-96l128 128l-128 128v-96h-384v-192h64v128zM448 128h-320v96l-128 -128l128 -128v96h384v192h-64v-128z" />
<glyph unicode="&#xe613;" horiz-adv-x="526" d="M357 357l-0.5 0.5l-0.5 0.5l-0.5 0.5l-0.5 0.5q-5 5 -10 8.5t-11 5.5t-11.5 3.5t-12.5 1.5q-6 0 -12.5 -1.5t-11.5 -3.5t-10.5 -5.5t-9.5 -8.5q-5 -4 -8 -9t-6 -10.5t-3.5 -11.5t-1.5 -13l1 -75h-53l-1.5 -0.5t-2 -1.5t-1.5 -2.5t0 -2.5q-1 -1 0 -2.5t1.5 -2t2 -1 l1.5 -0.5h53l-1 -149q1 -2 1 -3t1.5 -2t2 -1.5t2.5 -0.5q1 0 2.5 0.5t2 1.5t1.5 2t0 3l1 149h59q3 0 3.5 0.5t2 1t1.5 2t1 2.5q-1 1 -1 2.5t-1.5 2.5t-2 1.5t-3.5 0.5h-59l-1 75q1 5 1.5 10t3 9.5t4.5 8t6 7.5q3 4 7.5 6.5t8.5 4.5t9.5 3t9.5 1q6 0 10.5 -1t9 -3t8.5 -4.5 t8 -6.5q-1 0 0 0t0.5 -0.5t0 -0.5t-0.5 0q2 -1 2.5 -2t2.5 -1t2.5 0.5t2.5 0.5q0 1 1.5 2.5t1 2.5t-0.5 2.5t-1 2.5v0z" />
<glyph unicode="&#xe614;" horiz-adv-x="518" d="M260 185l-2 1l-0.5 0.5t-1 0.5t-1 0.5t-1.5 0.5l-1 1q-1 1 -2 1.5l-2 1t-2 0.5t-2 1q-10 6 -15.5 12t-7 11.5t0 11t3.5 9.5q2 1 4.5 2.5l5 3t4.5 3.5l4 4q4 5 7.5 10t6 10.5t3.5 11.5t1 12q0 7 -1 13t-3.5 11.5t-6 10.5t-7.5 9l-2 2l-1.5 1.5l-1.5 1.5t-2 1h32 q1 0 2.5 0.5t2 1.5l1 2t0.5 2q0 2 -0.5 3t-1 1.5t-2 1t-2.5 0.5h-71q-6 0 -12 -1t-11 -3.5t-10 -5.5t-9 -8q-5 -4 -8.5 -9t-5.5 -11t-3.5 -12t-1.5 -12q0 -7 1.5 -12.5t3.5 -11t5.5 -11t8.5 -9.5q4 -5 9 -8.5t10.5 -5.5t11.5 -3t13 -1h2.5h3h3t2.5 1q-1 -4 -1.5 -8t0.5 -8 t2.5 -8.5t4.5 -8.5q-2 0 -4 0.5t-4 0.5h-4h-4q-8 0 -16 -1t-15.5 -3t-14.5 -5.5t-13 -7.5t-11 -9t-8 -10.5t-5 -11.5t-2 -13q0 -6 2 -12t5 -11.5t8 -10.5t11 -9q6 -5 13 -8t14 -5t15 -3t17 -1t17 1t15.5 3t14 5t12.5 8q7 4 11.5 9t8 10.5t5 11.5t1.5 12q0 7 -1.5 13t-5 11.5 t-8 10.5t-11.5 10v0zM164 259l-6 8t-4.5 8t-2.5 9t-1 10q0 6 1 10.5t2.5 9t4.5 8.5l6 8l8 6t8 4.5t8.5 2.5t9.5 1h3q5 0 10 -1t9 -2.5t8 -4.5l8 -6l6 -8t4.5 -8.5t2.5 -9.5t1 -10t-1 -10t-2.5 -9.5t-4.5 -8.5t-7 -7l-3.5 -3.5t-3.5 -3t-4.5 -2.5t-4.5 -2v0v0v0v0 q-2 -1 -4.5 -2t-4.5 -1.5t-5 -0.5h-5q-5 0 -10 1t-9.5 3t-8.5 4.5t-8 6.5v0zM254 107q-6 -4 -12 -6.5t-12.5 -4.5t-13.5 -3t-15 -1q-7 0 -14.5 1t-14 3t-12 4.5t-11.5 6.5q-5 4 -9 7.5t-6.5 8t-3.5 9t-1 9.5t1 9.5t3.5 8.5t6.5 8t9 7q6 4 11.5 7t12 5t14 2.5t14.5 0.5 q6 0 11 -0.5l10 -1t9.5 -2t8.5 -3.5q1 0 2 -0.5t1.5 -1t1.5 -1t2 -0.5l1 -1q1 0 1.5 -0.5l0.5 -0.5l0.5 -0.5t1.5 -0.5l2 -1q5 -4 8.5 -8t6 -8t4 -8.5t1.5 -9.5t-1.5 -9.5t-4 -9t-6 -8.5t-8.5 -7v0zM413 309h-61v53q0 1 -0.5 2l-1 2t-2 1.5t-2.5 0.5t-2 -0.5t-2 -1.5 t-1.5 -2t-0.5 -2v-53h-54q-1 0 -2 -0.5t-2 -1.5t-1.5 -2t-0.5 -2t0.5 -2t1.5 -2t2 -1.5t2 -0.5h54v-54q0 -1 0.5 -2.5t1.5 -2l2 -1t2 -0.5t2.5 0.5t2 1t1 2t0.5 2.5v54h61q1 0 2 0.5t2 1.5t1.5 2t0.5 2t-0.5 2t-1.5 2t-2 1.5t-2 0.5v0z" />
<glyph unicode="&#xe615;" horiz-adv-x="558" d="M390 384h-233h-2.5t-1.5 -0.5t-1.5 -0.5h-2.5q1 0 0.5 0t0 0t0 0t0.5 0q-7 0 -12 -2.5t-10.5 -7t-8 -12t-3.5 -18.5l1 -233q-1 -10 2 -18t7.5 -13t13 -7.5t16.5 -2.5h235q9 0 17 2.5t12.5 7.5t8 13t2.5 18l1 233q-1 10 -3.5 17.5t-8 12.5t-13 8t-17.5 3v0zM418 110 q-1 -8 -2 -13t-5 -8.5t-8.5 -5t-12.5 -1.5h-233q-8 0 -12.5 1.5t-8.5 5t-5 8.5t-2 13l1 233q-1 6 0.5 11t4 8.5t7 5t9.5 2.5q1 0 0.5 0t0 0t0 0t0.5 0q-1 0 -0.5 0t0 0t0 0t-0.5 0h1.5h1.5h1h2h1l1 -35q-1 -1 0 -2.5t1.5 -2.5t2 -1.5l1.5 -0.5q3 0 3.5 0.5t2 1.5t1.5 2.5 t1 2.5l-1 35h19l-1 -35q1 -2 1 -3t1.5 -2t2 -1.5t3.5 -0.5l1.5 0.5t2 1.5t1.5 2t0 3l1 35h186q8 0 13 -1.5t9 -5t5 -8.5t2 -12l-1 -233h1zM335 287q-8 6 -14.5 11t-14.5 8t-16 5t-18 2q-8 0 -17 -2t-16.5 -5t-15 -8t-12.5 -11q-6 -5 -10 -11t-7.5 -12.5t-5 -13t-3.5 -14.5 q1 -1 0.5 -2.5t-0.5 -2.5t-0.5 -2.5t0.5 -3.5q-1 -9 1 -17t5 -16t8 -15t11 -13q7 -7 13.5 -11.5t15 -8t16.5 -5t18 -1.5q8 0 16.5 1.5t16 5t15 8t13.5 11.5q7 6 11.5 13t8 15t4.5 16.5t2 17.5l-2 11q1 7 -1.5 13.5t-5.5 13t-7.5 12.5t-8.5 11v0zM324 173q-4 -5 -10.5 -9 t-12.5 -7t-13.5 -4.5t-14.5 -1.5q-9 0 -15.5 1.5t-13.5 4t-12.5 7t-11.5 9.5q-5 6 -9.5 12t-6.5 12.5t-4 13.5t-1 14q-1 2 -0.5 3t0 2.5t0.5 2.5t0 2q2 6 3 12t4 11l6 10t9 10q4 5 10.5 9t12.5 7t14 4t14 1q9 0 15.5 -1t13.5 -4t12.5 -7t12.5 -9q3 -5 7 -10t6 -10t4.5 -11 t2.5 -12l1 -10q-1 -7 -2 -14.5t-4 -14t-6.5 -12.5t-10.5 -11v0zM273 271h-2q-3 0 -8 -1t-8.5 -2.5t-7.5 -4t-6 -5.5q-4 -4 -6 -7.5t-4.5 -7.5t-2.5 -8.5t-1 -9.5q1 0 0.5 -1t0 -1.5t0 -1t0.5 -1.5q0 -4 1.5 -7.5t2.5 -7t3.5 -6.5t4.5 -6q4 -3 7.5 -5.5t8 -4t8.5 -2.5t9 -1 q4 0 8.5 1t8 2.5t8 4t6.5 5.5q4 3 5.5 6t4 6.5t3 7t1.5 7.5q-1 0 -0.5 1t0 1.5t0 1.5t-0.5 1q1 5 0 9.5t-2.5 8.5t-4.5 7.5t-5 7.5q-4 3 -7.5 5.5t-8 4t-8 2.5t-9.5 1h1zM304 221q-1 -3 -1 -5t-2 -4.5t-3 -4.5t-4 -4q-1 -3 -4 -4.5t-5.5 -2.5t-6 -2t-5.5 -1q-5 0 -7.5 1 t-5.5 2t-5.5 2.5t-5.5 4.5q-1 2 -3 4t-2.5 4.5t-2 5t-0.5 5.5q-1 0 -0.5 0.5t0 1t0 1t-0.5 0.5q1 4 1 7t1.5 6t3 5.5t4.5 4.5q2 3 5 4.5l5 2.5t5.5 1.5t5.5 0.5h2q3 0 6.5 -0.5t5.5 -1.5t5 -3t4 -4q4 -2 5 -5t3 -5.5t2 -5.5t1 -7q-1 0 -0.5 -0.5t-0.5 -1t-0.5 -1t-0.5 -1.5 h1z" />
<glyph unicode="&#xe616;" horiz-adv-x="510" d="M431 372h-1.5t-1.5 0.5t-1.5 0.5h-1.5l-1.5 -0.5t-2 -1t-2 -1t-1.5 -1.5q-1 0 -2 -0.5t-3.5 -1t-5 -0.5h-6.5h-8t-9 0.5t-10 1t-10 1.5t-7 1.5t-7.5 1t-7.5 0.5h-7q-16 0 -30.5 -3.5t-24 -8.5t-17 -10t-10.5 -8l-9 9t-14.5 9.5t-21 8t-28.5 3.5h-6t-7 -0.5t-7 -1t-7 -1.5 q-7 0 -11.5 -0.5t-10 -1t-9.5 -0.5h-10t-12.5 0.5t-9.5 1.5t-5.5 1.5t-1.5 0.5h-1l-1.5 0.5l-1.5 0.5h-2l-1.5 -0.5t-1.5 -1t-1.5 -1t-1.5 -1.5q-2 0 -2.5 -1.5t-2 -2.5t-1.5 -3t-1 -3l1 -221q-1 -2 0 -3.5t1.5 -3t2.5 -3t3 -1.5t3 -1t7.5 -2t12 -1.5t16.5 -0.5h11t11 0.5 t11.5 1.5t10.5 3q4 0 6.5 0.5t6 1t6 0.5h6.5q13 0 23.5 -3.5t16.5 -7.5t10 -7.5t3 -4.5q2 -1 2.5 -2t2.5 -2t3 -1h3l-1 -8q1 -1 1 -2.5t1.5 -2t2 -1t2.5 -0.5q1 0 2.5 0.5t2 1t1.5 2t0 2.5l1 7h2t2.5 0.5t2 1.5t1.5 2q1 0 5 3.5t13.5 8.5t21.5 8.5t29 3.5h5.5t6 -0.5t6 -1 t5.5 -0.5q7 -2 12.5 -3t11 -1.5t10 -0.5h9.5q7 0 13.5 0.5t10 2t6 2.5t3.5 2q2 1 2 2.5t1.5 2.5t1.5 2.5t1 2.5l-1 221q1 2 0 4t-1.5 4t-2.5 3t-3 2v0zM180 141q-2 0 -5.5 -0.5t-6 -0.5t-6.5 -0.5t-7 -1.5q-7 -1 -12.5 -2t-11 -1.5t-10 -1t-9.5 -0.5q-8 0 -15 1t-10.5 2 t-6 1.5t-1.5 0.5l-1 221q1 0 2.5 -1t6.5 -2t10.5 -1.5t15.5 -0.5h8.5t10.5 0.5t11.5 1.5t11.5 3q5 0 8 0.5t6.5 1t6 0.5h6.5q17 0 29.5 -4t20 -9.5t11.5 -10t3 -4.5l1 -220q-2 -1 -5.5 3.5t-11.5 10t-20 10t-30 4.5v0zM426 310l-1 -172q1 0 -0.5 -0.5t-4 -1.5t-8 -2 t-11.5 -1q-4 0 -7.5 0.5t-9 1t-11 1.5t-13.5 2q-2 1 -6 1.5t-6.5 0.5t-6.5 0.5t-6 0.5q-19 0 -33 -4.5t-24 -10t-15 -9.5t-6 -4l1 220q-1 0 5 4.5t15 10t24 9.5t32 4h7t6.5 -0.5t6.5 -1t7 -0.5q6 -2 12 -3t10.5 -1.5t9.5 -0.5h7q8 0 12.5 0.5t8 1.5t4 2t1.5 1l-1 -49h1z" />
<glyph unicode="&#xe617;" horiz-adv-x="534" d="M362 343q-8 9 -17.5 15t-19 11t-20.5 6.5t-23 2.5q0 -1 0 -0.5v0v0t0 -0.5q-12 1 -23 -1.5t-21 -6.5t-19 -11l-18 -14q-8 -10 -14 -19t-10.5 -19.5t-6.5 -21.5t-2 -24q0 -4 0.5 -10t1.5 -10.5t2 -10t3 -9.5q0 -2 1 -2.5t2 -1.5t2.5 -0.5t2.5 -0.5q1 2 2 2.5t1.5 2t1 2 t-0.5 2.5q-1 4 -2.5 9t-2 9t-1 9t-0.5 9q0 12 2 21.5t5.5 19t9 17.5t12.5 17q8 6 16 12.5t16.5 9.5t18 5.5t20.5 1.5q0 1 0 0.5t0.5 0t0.5 0t0 0.5q11 -1 20.5 -2.5t18 -5.5t16.5 -9.5t15 -13.5q8 -7 13.5 -16t9 -17.5t5.5 -19t2 -20.5q0 -11 -1.5 -20t-5 -18.5t-8.5 -17 t-11 -15.5q-4 -3 -8 -6.5t-8 -5.5t-8 -4.5t-9 -2.5q-5 -1 -9.5 -1h-8.5t-8.5 2t-8.5 3q-9 5 -15.5 10t-10.5 12t-6 15t-2 19v0.5v0.5v1v0v1v1v1v2l11 55v1v1t0 0.5t0 1.5q0 -1 0 -0.5v0t0 0.5v0q0 2 -0.5 2.5t-1.5 2t-2 1.5t-3 1q-3 -1 -5.5 -1t-4.5 -1.5t-4 -2.5t-3 -4 q-3 -3 -4.5 -9.5t-1.5 -13.5t1.5 -17t4.5 -21l-29 -155q-1 -1 -0.5 -2.5t1 -2t2 -1.5t2.5 -1q0 -1 0 -0.5t0.5 0t0.5 0t0 -0.5q1 1 2 1t2 1l1.5 1.5t0.5 2.5l23 120q2 -4 5.5 -9.5t8 -9.5t10 -8t12.5 -6q3 -3 6.5 -3.5t7.5 -2t7.5 -1.5t7.5 -1q1 1 3 0.5t3.5 0.5t3 0.5 t3.5 0.5q6 1 11 3.5l10 5t10 6.5t9 8q7 9 12.5 17.5t9.5 19t5.5 20.5t1.5 23q1 11 -1 22.5t-6 21.5t-10.5 20t-14.5 18v0zM250 287l-2 -15v5.5t0.5 3.5t1 3t0.5 3v0z" />
</font>
</defs>
</svg>
